<svg xmlns="http://www.w3.org/2000/svg" viewBox="8.396 89.659 1024 278.898" width="100%" height="100%">
    <path d="M 149.199 350.719 C 133.795 353.424 118.12 354.235 101.905 356.395 L 52.447 211.539 L 52.447 362.612 C 37.043 364.233 22.99 366.395 8.396 368.557 L 8.396 91.815 L 49.476 91.815 L 105.688 248.836 L 105.688 91.815 L 149.199 91.815 L 149.199 350.719 Z M 234.33 193.161 C 251.087 193.161 276.761 192.35 292.165 192.35 L 292.165 235.59 C 272.976 235.59 250.546 235.59 234.33 236.401 L 234.33 300.723 C 259.735 299.102 285.139 296.938 310.812 296.127 L 310.812 337.744 L 191.088 347.205 L 191.088 91.815 L 310.812 91.815 L 310.812 135.056 L 234.33 135.056 L 234.33 193.161 Z M 541.88 190.189 L 601.067 190.189 L 601.067 233.429 L 541.88 233.429 L 541.88 331.533 L 499.447 331.533 L 499.447 91.815 L 620.255 91.815 L 620.255 135.056 L 541.88 135.056 L 541.88 190.189 Z M 690.521 293.696 C 715.115 294.235 739.977 296.13 764.031 297.479 L 764.031 340.18 C 725.385 337.746 686.738 335.317 647.281 334.504 L 647.281 91.815 L 690.521 91.815 L 690.521 293.696 Z M 800.515 343.153 C 814.298 343.965 828.892 344.776 842.945 346.395 L 842.945 91.815 L 800.515 91.815 L 800.515 343.153 Z M 1032.396 91.815 L 977.533 223.43 L 1032.396 368.557 C 1016.179 366.395 999.964 363.422 983.748 360.719 L 952.67 280.725 L 921.053 354.235 C 905.375 351.53 890.241 350.719 874.569 348.557 L 930.241 221.807 L 879.972 91.815 L 926.454 91.815 L 954.831 164.514 L 985.101 91.815 L 1032.396 91.815 Z" style="fill: rgb(216, 31, 38);"/>
    <path d="M 405.303 211.538 m -66.142 0 a 66.142 121.795 0 1 0 132.284 0 a 66.142 121.795 0 1 0 -132.284 0 Z M 405.303 211.538 m -29.779 0 a 29.779 73.077 0 0 1 59.558 0 a 29.779 73.077 0 0 1 -59.558 0 Z" style="stroke: rgb(0, 0, 0); fill: rgb(216, 31, 38); stroke-width: 0px;"/>
</svg>
